<?xml version="1.0" standalone="no"?>
<!DOCTYPE svg PUBLIC "-//W3C//DTD SVG 20010904//EN"
 "http://www.w3.org/TR/2001/REC-SVG-20010904/DTD/svg10.dtd">
<svg version="1.0" xmlns="http://www.w3.org/2000/svg"
 width="512.000000pt" height="512.000000pt" viewBox="0 0 512.000000 512.000000"
 preserveAspectRatio="xMidYMid meet">
<metadata>
Created by potrace 1.11, written by Peter Selinger 2001-2013
</metadata>
<g transform="translate(0.000000,512.000000) scale(0.100000,-0.100000)"
fill="#000000" stroke="none">
<path d="M533 5102 c-56 -23 -106 -68 -134 -122 -21 -39 -24 -62 -27 -175 -3
-118 -2 -133 16 -155 l20 -24 231 -1 231 0 0 -200 0 -200 -54 -55 c-220 -224
-417 -525 -528 -805 -31 -77 -59 -160 -98 -290 -10 -35 -37 -166 -46 -222 -3
-21 -7 -45 -9 -53 -27 -98 -27 -541 0 -700 2 -14 6 -43 10 -65 3 -22 7 -47 10
-55 2 -8 6 -26 9 -40 26 -144 98 -358 180 -533 20 -43 36 -80 36 -82 0 -2 29
-52 64 -112 65 -110 149 -231 221 -319 55 -68 248 -260 320 -320 33 -27 62
-51 65 -55 3 -3 28 -21 55 -40 28 -18 52 -36 55 -39 8 -9 137 -91 183 -117
158 -90 495 -226 607 -247 14 -2 45 -9 70 -15 83 -19 186 -37 262 -47 97 -12
446 -11 551 2 222 27 426 78 622 154 111 43 314 143 365 180 16 11 31 20 34
20 3 0 45 28 93 62 79 55 122 88 202 153 36 29 219 211 273 272 156 175 338
483 428 723 70 185 103 316 137 535 25 161 24 526 -1 675 -3 14 -7 43 -10 66
-3 22 -18 97 -35 165 -100 418 -317 815 -617 1129 l-74 77 0 342 c-1 335 -2
344 -24 394 -31 69 -88 124 -150 142 -43 13 -284 15 -1775 14 -1596 0 -1729
-1 -1768 -17z"/>
</g>
</svg>
