<svg height="512pt" viewBox="0 0 512 512" width="512pt" xmlns="http://www.w3.org/2000/svg"><path d="m376.796875 105.464844c16.070313 14.867187 31.914063 25.683594 32.582031 26.136718 1.695313 1.15625 3.65625 1.730469 5.621094 1.730469s3.925781-.574219 5.621094-1.730469c.667968-.453124 16.511718-11.269531 32.582031-26.136718 23.296875-21.554688 34.621094-39.753906 34.621094-55.652344 0-27.464844-20.808594-49.8125-46.386719-49.8125-9.496094 0-18.730469 3.160156-26.4375 8.882812-7.703125-5.722656-16.941406-8.882812-26.4375-8.882812-25.578125 0-46.386719 22.347656-46.386719 49.8125 0 15.898438 11.324219 34.097656 34.621094 55.652344zm11.765625-85.464844c7.152344 0 13.855469 3.195312 18.875 8.996094 1.898438 2.195312 4.65625 3.457031 7.5625 3.457031 2.902344 0 5.664062-1.261719 7.5625-3.457031 5.015625-5.800782 11.71875-8.996094 18.871094-8.996094 14.550781 0 26.390625 13.375 26.390625 29.8125 0 17.066406-30.371094 44.960938-52.824219 61.289062-22.457031-16.332031-52.824219-44.222656-52.824219-61.289062 0-16.4375 11.835938-29.8125 26.386719-29.8125zm0 0"/><path d="m362.652344 247.308594c-.890625-4.214844-2.207032-8.367188-3.972656-12.40625l-25.871094-59.242188c-15.488282-35.472656-56.953125-51.730468-92.429688-36.238281-14.757812 6.445313-26.175781 17.394531-33.378906 30.527344v-12.929688c0-26.453125-21.523438-47.976562-47.980469-47.976562h-42.039062c-26.457031-.003907-47.980469 21.519531-47.980469 47.976562v39.980469c0 19.308594 7.980469 36.777344 20.804688 49.3125-50.1875 3.988281-89.804688 46.101562-89.804688 97.292969v158.394531c0 5.523438 4.476562 10 10 10h438c5.523438 0 10-4.476562 10-10v-38c0-5.523438-4.476562-10-10-10s-10 4.476562-10 10v28h-23.125v-98c0-5.523438-4.476562-10-10-10s-10 4.476562-10 10v98h-123.75v-50.996094c14.433594 10.683594 30.085938 19.820313 46.777344 27.183594l2.585937 1.144531c15.214844 6.710938 32.835938 1.472657 41.914063-12.457031 4.921875-7.558594 6.609375-16.582031 4.742187-25.40625-1.863281-8.824219-7.054687-16.394531-14.613281-21.316406l-10.09375-6.566406c-29.960938-19.5-54.945312-46.085938-72.585938-77.140626 5.949219 1.800782 12.167969 2.746094 18.460938 2.746094 8.472656 0 17.082031-1.703125 25.332031-5.304687l12.246094-5.351563c15.546875-6.789062 27.519531-19.226562 33.714844-35.023437 2.007812-5.125 3.320312-10.402344 3.957031-15.726563 42.890625 8.46875 74.4375 46.289063 74.4375 90.714844v25.5c0 5.523438 4.476562 10 10 10s10-4.476562 10-10v-25.5c0-55.675781-40.738281-102.84375-95.347656-111.191406zm-161.292969-23.011719c.777344 2.539063 1.691406 5.0625 2.78125 7.550781l13.105469 30.015625c-10.304688-6.171875-21.609375-10.667969-33.503906-13.265625 7.515624-6.671875 13.570312-14.949218 17.617187-24.300781zm-112.359375-27.296875v-39.980469c0-15.425781 12.550781-27.976562 27.980469-27.976562h42.039062c15.429688 0 27.980469 12.550781 27.980469 27.976562v39.980469c0 27.019531-21.980469 49-49 49s-49-21.980469-49-49zm162.125 231v64h-23.125v-91.976562c7.289062 8.875 15.183594 17.1875 23.609375 24.90625-.3125.96875-.484375 2-.484375 3.070312zm80.402344-7.65625 10.09375 6.570312c3.082031 2.007813 5.195312 5.09375 5.957031 8.6875.761719 3.597657.074219 7.277344-1.933594 10.355469-3.699219 5.675781-10.882812 7.8125-17.082031 5.074219l-2.585938-1.140625c-41.214843-18.1875-75.621093-47.992187-99.496093-86.191406-2.363281-3.78125-6.953125-5.539063-11.238281-4.3125-4.289063 1.230469-7.242188 5.152343-7.242188 9.613281v123h-140v-91c0-5.523438-4.476562-10-10-10s-10 4.476562-10 10v91h-28v-148.394531c0-42.792969 34.8125-77.605469 77.605469-77.605469h62.144531c34.070312 0 65.167969 18.691406 81.152344 48.785156l8.25 15.535156c19.339844 36.410157 47.824218 67.539063 82.375 90.023438zm9.457031-144.132812c-4.242187 10.820312-12.445313 19.34375-23.097656 23.996093l-12.25 5.347657c-21.992188 9.605468-47.691407-.476563-57.296875-22.464844l-25.871094-59.242188c-11.078125-25.371094.546875-55.019531 25.914062-66.101562 6.519532-2.84375 13.320313-4.191406 20.019532-4.191406 19.363281 0 37.847656 11.261718 46.078125 30.109374l25.871093 59.242188c4.652344 10.65625 4.878907 22.480469.632813 33.304688zm0 0"/><path d="m448 414c-2.628906 0-5.210938 1.070312-7.070312 2.929688-1.859376 1.859374-2.929688 4.441406-2.929688 7.070312s1.070312 5.210938 2.929688 7.070312c1.859374 1.859376 4.441406 2.929688 7.070312 2.929688s5.210938-1.070312 7.070312-2.929688c1.859376-1.859374 2.929688-4.441406 2.929688-7.070312s-1.070312-5.210938-2.929688-7.070312c-1.859374-1.859376-4.441406-2.929688-7.070312-2.929688zm0 0"/><path d="m58 351c-2.628906 0-5.210938 1.070312-7.070312 2.929688-1.859376 1.859374-2.929688 4.441406-2.929688 7.070312s1.070312 5.210938 2.929688 7.070312c1.859374 1.859376 4.441406 2.929688 7.070312 2.929688s5.210938-1.070312 7.070312-2.929688c1.859376-1.859374 2.929688-4.441406 2.929688-7.070312s-1.070312-5.210938-2.929688-7.070312c-1.859374-1.859376-4.441406-2.929688-7.070312-2.929688zm0 0"/><path d="m502 172.667969h-9v-9c0-5.523438-4.476562-10-10-10s-10 4.476562-10 10v9h-9c-5.523438 0-10 4.476562-10 10 0 5.519531 4.476562 10 10 10h9v9c0 5.519531 4.476562 10 10 10s10-4.480469 10-10v-9h9c5.523438 0 10-4.480469 10-10 0-5.523438-4.476562-10-10-10zm0 0"/><path d="m203.5 74h9v9c0 5.523438 4.476562 10 10 10s10-4.476562 10-10v-9h9c5.523438 0 10-4.476562 10-10s-4.476562-10-10-10h-9v-9c0-5.523438-4.476562-10-10-10s-10 4.476562-10 10v9h-9c-5.523438 0-10 4.476562-10 10s4.476562 10 10 10zm0 0"/></svg>