<?xml version="1.0"?>
<svg xmlns="http://www.w3.org/2000/svg" xmlns:xlink="http://www.w3.org/1999/xlink" version="1.1" viewBox="0 0 192 192" width="480px" height="480px"><g fill="none" fill-rule="nonzero" stroke="none" stroke-width="1" stroke-linecap="butt" stroke-linejoin="miter" stroke-miterlimit="10" stroke-dasharray="" stroke-dashoffset="0" font-family="none" font-weight="none" font-size="none" text-anchor="none" style="mix-blend-mode: normal"><path d="M0,192v-192h192v192z" fill="none"/><g id="Layer_1"><circle cx="24" cy="24" transform="scale(4,4)" r="20" fill="#cccccc"/><path d="M78.248,108c0,-13.316 -2.248,-17.928 -2.248,-23.152c0,-11.876 8.524,-12.848 12.128,-12.848c5.136,0 11.872,3.484 11.872,10c0,9.484 -8,10.684 -8,10.684c0,0 0,3.316 0,9.156c0,6.16 1.488,14.16 12.492,14.16c17.656,0 19.508,-24.608 19.508,-31.348c0,-9.316 -5.96,-28.652 -27.148,-28.652c-28.26,0 -32.852,25.252 -32.852,32c0,2.888 0.528,8.488 1.076,10.668c8.424,2.08 6.46,9.5 4.176,11.58c-3.316,3.064 -17.252,3.66 -17.252,-24.948c0,-27.248 24.288,-41.3 45.608,-41.3c20.288,0 42.392,14.008 42.392,40.984c0,24.072 -17.308,43.028 -35.488,43.028c-10.912,0 -16.7,-8.992 -16.7,-8.992c0,16.98 -13.832,41.312 -15.812,44.98c0,0 6.248,-31.416 6.248,-56z" fill="#ffffff"/></g></g></svg>
