<?xml version="1.0"?>
<svg xmlns="http://www.w3.org/2000/svg" xmlns:xlink="http://www.w3.org/1999/xlink" version="1.1" viewBox="0 0 192 192" width="480px" height="480px"><g fill="none" fill-rule="nonzero" stroke="none" stroke-width="1" stroke-linecap="butt" stroke-linejoin="miter" stroke-miterlimit="10" stroke-dasharray="" stroke-dashoffset="0" font-family="none" font-weight="none" font-size="none" text-anchor="none" style="mix-blend-mode: normal"><path d="M0,192v-192h192v192z" fill="none"/><g fill="#cccccc"><g id="surface1"><path d="M168,49.71875c-5.29688,2.34375 -10.98438,3.90625 -16.98438,4.64062c6.09375,-3.625 10.79688,-9.40625 13,-16.23438c-5.71875,3.35938 -12.04687,5.8125 -18.76562,7.10938c-5.375,-5.70312 -13.04688,-9.23438 -21.54688,-9.23438c-16.3125,0 -29.54687,13.10938 -29.54687,29.28125c0,2.28125 0.26562,4.51562 0.76562,6.67187c-24.54688,-1.21875 -46.32812,-12.89062 -60.89062,-30.60937c-2.5625,4.32812 -4,9.39062 -4,14.75c0,10.15625 5.20312,19.10937 13.14062,24.375c-4.84375,-0.14063 -9.40625,-1.5 -13.39062,-3.65625c0,0.09375 0,0.21875 0,0.34375c0,14.20312 10.1875,26.03125 23.6875,28.73437c-2.46875,0.67188 -5.07813,1.04688 -7.76563,1.04688c-1.90625,0 -3.76562,-0.21875 -5.5625,-0.54688c3.75,11.60938 14.65625,20.09375 27.59375,20.34375c-10.125,7.84375 -22.85938,12.54688 -36.70312,12.54688c-2.39063,0 -4.73438,-0.14063 -7.04688,-0.42188c13.09375,8.28125 28.625,13.14062 45.29688,13.14062c54.34375,0 84.07812,-44.625 84.07812,-83.34375c0,-1.26563 -0.04688,-2.53125 -0.10938,-3.76563c5.79688,-4.10937 10.79688,-9.26562 14.75,-15.17187"/></g></g></g></svg>
